# xmcd
#
# Track frame offsets: 
#        150
#        15602
#        29240
#        42205
#        59505
#        83050
#        98447
#        114470
#        131642
#        148467
#        169322
#        188555
#
# Disc length: 2802 seconds
#
# Revision: 5
# Processed by: cddbd v1.5PL3 Copyright (c) Steve Scherf et al.
# Submitted via: ExactAudioCopy v0.95a3
#
DISCID=a60af00c
DTITLE=Martina McBride - Emotion
DYEAR=1999
DGENRE=Country
TTITLE0=Do What You Do
TTITLE1=Anything's Better Than Feelin' The Blues
TTITLE2=I Love You
TTITLE3=Make Me Believe
TTITLE4=Love's The Only House
TTITLE5=There You Are
TTITLE6=It's My Time
TTITLE7=I Ain't Goin' Nowhere
TTITLE8=Anything And Everything
TTITLE9=From The Ashes
TTITLE10=Good Bye
TTITLE11=This Uncivil War
EXTD=YEAR: 1999
EXTT0=
EXTT1=
EXTT2=
EXTT3=
EXTT4=
EXTT5=
EXTT6=
EXTT7=
EXTT8=
EXTT9=
EXTT10=
EXTT11=
PLAYORDER=
